<mxfile host="app.diagrams.net" modified="2022-01-08T13:58:53.283Z" agent="5.0 (Windows NT 10.0; Win64; x64) AppleWebKit/537.36 (KHTML, like Gecko) Chrome/94.0.4606.54 Safari/537.36" etag="JqqeST0ehi-VsUwZei2d" version="16.1.4" type="github">
  <diagram id="paHKK17B6sIbFTaooVwJ" name="会话分析">
    <mxGraphModel dx="782" dy="474" grid="1" gridSize="10" guides="1" tooltips="1" connect="1" arrows="1" fold="1" page="1" pageScale="1" pageWidth="827" pageHeight="1169" math="0" shadow="0">
      <root>
        <mxCell id="0" />
        <mxCell id="1" parent="0" />
        <mxCell id="aN4IXlnFFBzTNGCkeRl1-1" value="" style="rounded=0;whiteSpace=wrap;html=1;fillColor=#8b8b8b;strokeColor=#0c0c0c;" vertex="1" parent="1">
          <mxGeometry x="100" y="150" width="70" height="90" as="geometry" />
        </mxCell>
        <mxCell id="aN4IXlnFFBzTNGCkeRl1-2" value="" style="rounded=0;whiteSpace=wrap;html=1;fillColor=#5b9bd5;strokeColor=#41719c;" vertex="1" parent="1">
          <mxGeometry x="120" y="165" width="30" height="60" as="geometry" />
        </mxCell>
        <mxCell id="aN4IXlnFFBzTNGCkeRl1-3" value="" style="rounded=0;whiteSpace=wrap;html=1;fillColor=#8b8b8b;strokeColor=#0c0c0c;" vertex="1" parent="1">
          <mxGeometry x="100" y="240" width="330" height="90" as="geometry" />
        </mxCell>
        <mxCell id="aN4IXlnFFBzTNGCkeRl1-4" value="" style="rounded=0;whiteSpace=wrap;html=1;fillColor=#5b9bd5;strokeColor=#41719c;" vertex="1" parent="1">
          <mxGeometry x="120" y="255" width="30" height="60" as="geometry" />
        </mxCell>
        <mxCell id="aN4IXlnFFBzTNGCkeRl1-5" value="" style="rounded=0;whiteSpace=wrap;html=1;fillColor=#5b9bd5;strokeColor=#41719c;" vertex="1" parent="1">
          <mxGeometry x="210" y="255" width="30" height="60" as="geometry" />
        </mxCell>
        <mxCell id="aN4IXlnFFBzTNGCkeRl1-6" value="" style="rounded=0;whiteSpace=wrap;html=1;fillColor=#5b9bd5;strokeColor=#41719c;" vertex="1" parent="1">
          <mxGeometry x="300" y="255" width="30" height="60" as="geometry" />
        </mxCell>
        <mxCell id="aN4IXlnFFBzTNGCkeRl1-7" value="" style="rounded=0;whiteSpace=wrap;html=1;fillColor=#5b9bd5;strokeColor=#41719c;" vertex="1" parent="1">
          <mxGeometry x="390" y="255" width="30" height="60" as="geometry" />
        </mxCell>
        <mxCell id="aN4IXlnFFBzTNGCkeRl1-8" value="" style="rounded=0;whiteSpace=wrap;html=1;fillColor=#8b8b8b;strokeColor=#0c0c0c;" vertex="1" parent="1">
          <mxGeometry x="249" y="150" width="461" height="90" as="geometry" />
        </mxCell>
        <mxCell id="aN4IXlnFFBzTNGCkeRl1-9" value="" style="rounded=0;whiteSpace=wrap;html=1;fillColor=#5b9bd5;strokeColor=#41719c;" vertex="1" parent="1">
          <mxGeometry x="269" y="165" width="30" height="60" as="geometry" />
        </mxCell>
        <mxCell id="aN4IXlnFFBzTNGCkeRl1-10" value="" style="rounded=0;whiteSpace=wrap;html=1;fillColor=#5b9bd5;strokeColor=#41719c;" vertex="1" parent="1">
          <mxGeometry x="359" y="165" width="30" height="60" as="geometry" />
        </mxCell>
        <mxCell id="aN4IXlnFFBzTNGCkeRl1-11" value="" style="rounded=0;whiteSpace=wrap;html=1;fillColor=#5b9bd5;strokeColor=#41719c;" vertex="1" parent="1">
          <mxGeometry x="449" y="165" width="30" height="60" as="geometry" />
        </mxCell>
        <mxCell id="aN4IXlnFFBzTNGCkeRl1-12" value="" style="rounded=0;whiteSpace=wrap;html=1;fillColor=#5b9bd5;strokeColor=#41719c;" vertex="1" parent="1">
          <mxGeometry x="590" y="165" width="30" height="60" as="geometry" />
        </mxCell>
        <mxCell id="aN4IXlnFFBzTNGCkeRl1-13" value="用户A" style="text;html=1;strokeColor=none;fillColor=none;align=center;verticalAlign=middle;whiteSpace=wrap;rounded=0;fontSize=20;" vertex="1" parent="1">
          <mxGeometry x="10" y="177.5" width="60" height="35" as="geometry" />
        </mxCell>
        <mxCell id="aN4IXlnFFBzTNGCkeRl1-14" value="用户B" style="text;html=1;strokeColor=none;fillColor=none;align=center;verticalAlign=middle;whiteSpace=wrap;rounded=0;fontSize=20;" vertex="1" parent="1">
          <mxGeometry x="10" y="267.5" width="60" height="35" as="geometry" />
        </mxCell>
        <mxCell id="aN4IXlnFFBzTNGCkeRl1-15" value="会话1" style="text;html=1;strokeColor=none;fillColor=none;align=center;verticalAlign=middle;whiteSpace=wrap;rounded=0;fontSize=20;" vertex="1" parent="1">
          <mxGeometry x="110" y="110" width="60" height="35" as="geometry" />
        </mxCell>
        <mxCell id="aN4IXlnFFBzTNGCkeRl1-16" value="会话2" style="text;html=1;strokeColor=none;fillColor=none;align=center;verticalAlign=middle;whiteSpace=wrap;rounded=0;fontSize=20;" vertex="1" parent="1">
          <mxGeometry x="240" y="110" width="60" height="35" as="geometry" />
        </mxCell>
        <mxCell id="aN4IXlnFFBzTNGCkeRl1-17" value="会话3" style="text;html=1;strokeColor=none;fillColor=none;align=center;verticalAlign=middle;whiteSpace=wrap;rounded=0;fontSize=20;" vertex="1" parent="1">
          <mxGeometry x="100" y="330" width="60" height="35" as="geometry" />
        </mxCell>
        <mxCell id="aN4IXlnFFBzTNGCkeRl1-18" value="" style="rounded=0;whiteSpace=wrap;html=1;fillColor=#5b9bd5;strokeColor=#41719c;" vertex="1" parent="1">
          <mxGeometry x="670" y="165" width="30" height="60" as="geometry" />
        </mxCell>
        <mxCell id="aN4IXlnFFBzTNGCkeRl1-19" value="" style="rounded=0;whiteSpace=wrap;html=1;fillColor=#8b8b8b;strokeColor=#0c0c0c;" vertex="1" parent="1">
          <mxGeometry x="710" y="240" width="440" height="90" as="geometry" />
        </mxCell>
        <mxCell id="aN4IXlnFFBzTNGCkeRl1-20" value="" style="rounded=0;whiteSpace=wrap;html=1;fillColor=#5b9bd5;strokeColor=#41719c;" vertex="1" parent="1">
          <mxGeometry x="730" y="255" width="30" height="60" as="geometry" />
        </mxCell>
        <mxCell id="aN4IXlnFFBzTNGCkeRl1-21" value="" style="rounded=0;whiteSpace=wrap;html=1;fillColor=#5b9bd5;strokeColor=#41719c;" vertex="1" parent="1">
          <mxGeometry x="797" y="255" width="30" height="60" as="geometry" />
        </mxCell>
        <mxCell id="aN4IXlnFFBzTNGCkeRl1-22" value="" style="rounded=0;whiteSpace=wrap;html=1;fillColor=#5b9bd5;strokeColor=#41719c;" vertex="1" parent="1">
          <mxGeometry x="870" y="255" width="30" height="60" as="geometry" />
        </mxCell>
        <mxCell id="aN4IXlnFFBzTNGCkeRl1-23" value="" style="rounded=0;whiteSpace=wrap;html=1;fillColor=#5b9bd5;strokeColor=#41719c;" vertex="1" parent="1">
          <mxGeometry x="940" y="255" width="30" height="60" as="geometry" />
        </mxCell>
        <mxCell id="aN4IXlnFFBzTNGCkeRl1-24" value="" style="rounded=0;whiteSpace=wrap;html=1;fillColor=#5b9bd5;strokeColor=#41719c;" vertex="1" parent="1">
          <mxGeometry x="1040" y="255" width="30" height="60" as="geometry" />
        </mxCell>
        <mxCell id="aN4IXlnFFBzTNGCkeRl1-25" value="" style="rounded=0;whiteSpace=wrap;html=1;fillColor=#5b9bd5;strokeColor=#41719c;" vertex="1" parent="1">
          <mxGeometry x="1100" y="255" width="30" height="60" as="geometry" />
        </mxCell>
        <mxCell id="aN4IXlnFFBzTNGCkeRl1-26" value="会话4" style="text;html=1;strokeColor=none;fillColor=none;align=center;verticalAlign=middle;whiteSpace=wrap;rounded=0;fontSize=20;" vertex="1" parent="1">
          <mxGeometry x="710" y="330" width="60" height="35" as="geometry" />
        </mxCell>
        <mxCell id="aN4IXlnFFBzTNGCkeRl1-27" value="间隔超过5分钟" style="text;html=1;strokeColor=none;fillColor=none;align=center;verticalAlign=middle;whiteSpace=wrap;rounded=0;fontSize=20;" vertex="1" parent="1">
          <mxGeometry x="500.82" y="370" width="140" height="35" as="geometry" />
        </mxCell>
        <mxCell id="aN4IXlnFFBzTNGCkeRl1-28" value="" style="strokeWidth=2;html=1;shape=mxgraph.flowchart.annotation_2;align=left;labelPosition=right;pointerEvents=1;fillColor=#5b9bd5;fontSize=20;rotation=-90;" vertex="1" parent="1">
          <mxGeometry x="551.63" y="209.01" width="38.37" height="281.12" as="geometry" />
        </mxCell>
      </root>
    </mxGraphModel>
  </diagram>
</mxfile>
